<svg width="15 0" height="50" viewBox="0 0 92 28" fill="none" xmlns="http://www.w3.org/2000/svg">
<path d="M6.92 27.28C6.01333 27.28 5.05333 27.1467 4.04 26.88C3.02667 26.64 2.16 26.2 1.44 25.56C0.746667 24.9467 0.4 24.08 0.4 22.96C0.4 22.0267 0.653333 21.1867 1.16 20.44C1.66667 19.6933 2.25333 19.04 2.92 18.48C3.88 17.7067 5.04 17.0933 6.4 16.64C7.78667 16.1867 9.26667 15.8533 10.84 15.64C12.44 15.4 14.0533 15.24 15.68 15.16C17.3333 15.08 18.8933 15.04 20.36 15.04C21.0533 15.04 21.72 15.0533 22.36 15.08C23.0267 15.08 23.64 15.08 24.2 15.08C24.9467 14.3867 25.8133 13.5067 26.8 12.44C27.7867 11.3733 28.8133 10.24 29.88 9.04C30.9733 7.81333 32.0533 6.66667 33.12 5.6C33.3067 5.41333 33.52 5.32 33.76 5.32C33.8933 5.32 34.0133 5.33333 34.12 5.36C34.2533 5.38667 34.3733 5.44 34.48 5.52C34.72 5.04 34.9733 4.54667 35.24 4.04C35.5333 3.53333 35.84 3.06667 36.16 2.64C36.2933 2.45333 36.56 2.25333 36.96 2.04C37.3867 1.8 37.8133 1.58667 38.24 1.4C38.6933 1.21333 39.0267 1.12 39.24 1.12C39.72 1.12 39.96 1.32 39.96 1.72C39.96 1.82667 39.92 1.93333 39.84 2.04C39.7867 2.14667 39.7333 2.22667 39.68 2.28C38.1867 4.38667 36.8667 6.58667 35.72 8.88C34.6 11.1733 33.6267 13.5467 32.8 16C32.9867 16.0267 33.2533 16.08 33.6 16.16C33.9733 16.24 34.3067 16.3467 34.6 16.48C34.92 16.5867 35.08 16.7467 35.08 16.96C35.08 17.2 35.0133 17.32 34.88 17.32C34.7467 17.32 34.5733 17.32 34.36 17.32C34.12 17.32 33.8267 17.2533 33.48 17.12C33.16 16.96 32.8533 16.8667 32.56 16.84C32.2133 18.0133 31.8667 19.2933 31.52 20.68C31.1733 22.0667 31 23.3867 31 24.64C31 25.1733 31.08 25.5333 31.24 25.72C31.4 25.9333 31.7333 26.0133 32.24 25.96C32.5333 25.9067 32.8533 25.7733 33.2 25.56C33.5467 25.3733 33.8533 25.1733 34.12 24.96C34.2267 24.9067 34.28 24.88 34.28 24.88C34.44 24.88 34.52 25 34.52 25.24C34.52 25.3733 34.48 25.48 34.4 25.56C33.9467 26.0133 33.3867 26.3733 32.72 26.64C32.08 26.9067 31.5867 27.04 31.24 27.04C30.4133 27.04 29.84 26.76 29.52 26.2C29.2267 25.64 29.08 25 29.08 24.28C29.08 23.0267 29.2267 21.72 29.52 20.36C29.84 18.9733 30.1467 17.68 30.44 16.48C30.12 16.4267 29.7867 16.4 29.44 16.4C29.0933 16.4 28.7333 16.4 28.36 16.4C27.6933 16.4 27.0533 16.4133 26.44 16.44C25.8533 16.4667 25.3867 16.4933 25.04 16.52C23.8667 17.72 22.5867 18.9467 21.2 20.2C19.84 21.4533 18.3867 22.6133 16.84 23.68C15.2933 24.7467 13.68 25.6133 12 26.28C10.3467 26.9467 8.65333 27.28 6.92 27.28ZM30.64 15.68C31.0133 14.3467 31.4267 13 31.88 11.64C32.3333 10.2533 32.8533 8.92 33.44 7.64C32.2933 8.86667 31.1067 10.1333 29.88 11.44C28.6533 12.7467 27.4533 14.0133 26.28 15.24C26.9733 15.2667 27.7067 15.32 28.48 15.4C29.2533 15.4533 29.9733 15.5467 30.64 15.68ZM5.16 25.76C6.73333 25.76 8.30667 25.48 9.88 24.92C11.48 24.3333 13.04 23.5733 14.56 22.64C16.08 21.7067 17.5333 20.7067 18.92 19.64C20.3067 18.5467 21.5867 17.48 22.76 16.44C21.9333 16.44 20.8533 16.48 19.52 16.56C18.1867 16.6133 16.7333 16.72 15.16 16.88C13.5867 17.0133 12.0133 17.24 10.44 17.56C8.89333 17.8533 7.45333 18.2533 6.12 18.76C4.81333 19.2667 3.74667 19.9067 2.92 20.68C2.09333 21.4533 1.62667 22.3867 1.52 23.48C1.46667 24.0667 1.64 24.5333 2.04 24.88C2.44 25.2 2.93333 25.4267 3.52 25.56C4.13333 25.6933 4.68 25.76 5.16 25.76ZM38.5163 26.72C38.3296 26.72 38.0496 26.7067 37.6763 26.68C37.3296 26.6533 37.0096 26.5733 36.7163 26.44C36.4229 26.3333 36.2763 26.1467 36.2763 25.88C36.2763 25.72 36.3296 25.6 36.4363 25.52C36.5696 25.44 36.7029 25.4 36.8363 25.4C37.1296 25.4 37.4629 25.4667 37.8363 25.6C38.2096 25.76 38.5296 25.84 38.7963 25.84C39.8896 25.84 40.9029 25.5467 41.8363 24.96C42.7696 24.3467 43.5829 23.56 44.2763 22.6C44.9696 21.64 45.5163 20.6133 45.9163 19.52C46.3429 18.4267 46.5963 17.3867 46.6763 16.4C46.7029 16.2667 46.7163 16.16 46.7163 16.08C46.7163 15.9733 46.7163 15.88 46.7163 15.8C46.7163 15.1067 46.4763 14.76 45.9963 14.76C45.7296 14.76 45.4229 14.8533 45.0763 15.04C44.7296 15.2267 44.3696 15.4667 43.9963 15.76C43.1963 16.4 42.4229 17.2133 41.6763 18.2C40.9563 19.1867 40.3563 20.1867 39.8763 21.2C39.3963 22.1867 39.1563 23.0133 39.1563 23.68C39.1563 23.9733 39.2763 24.16 39.5163 24.24C39.7563 24.32 39.8763 24.4933 39.8763 24.76C39.8763 24.8933 39.8229 24.9867 39.7163 25.04C39.6096 25.12 39.4896 25.16 39.3563 25.16C38.6096 25.16 38.0629 24.9333 37.7163 24.48C37.3963 24.0267 37.2363 23.4533 37.2363 22.76C37.2363 21.8 37.4629 20.76 37.9163 19.64C38.3696 18.4933 38.9163 17.3733 39.5563 16.28C40.1963 15.1867 40.7696 14.2533 41.2763 13.48C41.7296 12.8133 42.3163 11.9733 43.0363 10.96C43.7563 9.92 44.5429 8.84 45.3963 7.72C46.2763 6.6 47.1563 5.54667 48.0363 4.56C48.9163 3.57333 49.7296 2.77333 50.4763 2.16C51.2496 1.54667 51.8896 1.24 52.3963 1.24C52.6096 1.24 52.8896 1.29333 53.2363 1.4C53.6096 1.48 53.8096 1.66667 53.8363 1.96C53.7296 2.28 53.4629 2.61333 53.0363 2.96C52.6096 3.28 52.2629 3.56 51.9963 3.8C50.7429 4.94667 49.4363 6.28 48.0763 7.8C46.7163 9.32 45.4229 10.9067 44.1963 12.56C42.9963 14.1867 42.0096 15.76 41.2363 17.28C41.7163 16.7467 42.2896 16.1733 42.9563 15.56C43.6229 14.92 44.3429 14.3733 45.1163 13.92C45.8896 13.4667 46.6496 13.24 47.3963 13.24C48.0096 13.24 48.4496 13.4267 48.7163 13.8C49.0096 14.1467 49.1563 14.6133 49.1563 15.2C49.1563 16.4533 48.8496 17.76 48.2363 19.12C47.6229 20.4533 46.8096 21.6933 45.7963 22.84C44.7829 23.9867 43.6363 24.92 42.3563 25.64C41.1029 26.36 39.8229 26.72 38.5163 26.72ZM56.1222 14.36C55.7222 14.36 55.3755 14.2267 55.0822 13.96C54.8155 13.6667 54.6822 13.32 54.6822 12.92C54.6822 12.52 54.8155 12.1733 55.0822 11.88C55.3755 11.5867 55.7222 11.44 56.1222 11.44C56.5222 11.44 56.8689 11.5867 57.1622 11.88C57.4555 12.1733 57.6022 12.52 57.6022 12.92C57.6022 13.32 57.4555 13.6667 57.1622 13.96C56.8689 14.2267 56.5222 14.36 56.1222 14.36ZM53.2022 25.68C52.2689 25.68 51.4822 25.44 50.8422 24.96C50.2289 24.4533 49.9889 23.6267 50.1222 22.48C50.1755 22.1067 50.3089 21.5867 50.5222 20.92C50.7355 20.2267 51.0022 19.5333 51.3222 18.84C51.6689 18.12 52.0422 17.5067 52.4422 17C52.8422 16.4933 53.2422 16.24 53.6422 16.24C53.9622 16.24 54.2689 16.3467 54.5622 16.56C54.8555 16.7467 55.0022 17.0133 55.0022 17.36C55.0022 17.5467 54.8689 17.8133 54.6022 18.16C54.3355 18.48 54.0155 18.8933 53.6422 19.4C53.2955 19.88 52.9889 20.4267 52.7222 21.04C52.4555 21.6267 52.3222 22.2667 52.3222 22.96C52.3222 23.6 52.4555 24.04 52.7222 24.28C53.0155 24.4933 53.3622 24.6 53.7622 24.6C54.2689 24.6 54.8155 24.4667 55.4022 24.2C55.9889 23.9067 56.5755 23.5467 57.1622 23.12C57.5089 22.88 58.0155 22.44 58.6822 21.8C59.3755 21.16 60.1755 20.3467 61.0822 19.36C61.1355 19.3067 61.1889 19.28 61.2422 19.28C61.4555 19.28 61.5622 19.4267 61.5622 19.72C61.5622 19.8 61.4022 20.0267 61.0822 20.4C60.7622 20.7467 60.3755 21.1467 59.9222 21.6C59.4955 22.0533 59.0822 22.48 58.6822 22.88C58.2822 23.2533 57.9889 23.5067 57.8022 23.64C57.1355 24.1467 56.4155 24.6133 55.6422 25.04C54.8955 25.4667 54.0822 25.68 53.2022 25.68ZM61.0925 25.04C60.5858 25.04 60.1592 24.92 59.8125 24.68C59.4658 24.4133 59.2925 24 59.2925 23.44C59.2925 22.6933 59.4925 21.8933 59.8925 21.04C60.3192 20.1867 60.8658 19.3467 61.5325 18.52C62.2258 17.6933 62.9858 16.9467 63.8125 16.28C64.6658 15.5867 65.5192 15.0533 66.3725 14.68C67.2525 14.28 68.0658 14.0933 68.8125 14.12C69.1058 13.32 69.4925 12.3467 69.9725 11.2C70.4525 10.0533 71.0125 8.86667 71.6525 7.64C72.2925 6.38667 72.9992 5.22667 73.7725 4.16C74.5725 3.06667 75.4258 2.18667 76.3325 1.52C77.2658 0.853332 78.2392 0.519998 79.2525 0.519998C79.9725 0.519998 80.5458 0.693332 80.9725 1.04C81.3992 1.38667 81.6125 1.93333 81.6125 2.68C81.6125 3.53333 81.3192 4.48 80.7325 5.52C80.1458 6.56 79.3858 7.64 78.4525 8.76C77.5192 9.85333 76.5192 10.9333 75.4525 12C74.4125 13.0667 73.4125 14.0533 72.4525 14.96C71.4925 15.84 70.7058 16.5733 70.0925 17.16C69.8258 18.0667 69.6525 18.8133 69.5725 19.4C69.5192 19.9867 69.4925 20.4933 69.4925 20.92C69.4925 21.24 69.5058 21.6133 69.5325 22.04C69.5858 22.44 69.7058 22.8 69.8925 23.12C70.0792 23.4133 70.3858 23.56 70.8125 23.56C71.2392 23.56 71.7192 23.3733 72.2525 23C72.7858 22.6267 73.3192 22.1867 73.8525 21.68C74.3858 21.1467 74.8525 20.6667 75.2525 20.24C75.6525 19.8133 75.9458 19.5467 76.1325 19.44H76.2125C76.2925 19.44 76.3592 19.52 76.4125 19.68C76.4658 19.8133 76.4658 19.92 76.4125 20C76.1725 20.2933 75.7992 20.72 75.2925 21.28C74.7858 21.8133 74.2125 22.3733 73.5725 22.96C72.9325 23.52 72.2792 24 71.6125 24.4C70.9725 24.7733 70.3858 24.96 69.8525 24.96C68.7592 24.96 68.0125 24.6133 67.6125 23.92C67.2125 23.2267 67.0125 22.44 67.0125 21.56C67.0125 21.3467 67.0125 21.1467 67.0125 20.96C67.0392 20.7733 67.0658 20.5867 67.0925 20.4C66.6658 20.96 66.1325 21.6 65.4925 22.32C64.8525 23.04 64.1458 23.68 63.3725 24.24C62.6258 24.7733 61.8658 25.04 61.0925 25.04ZM70.4125 15.92C70.8658 15.4133 71.4792 14.7467 72.2525 13.92C73.0258 13.0933 73.8525 12.1733 74.7325 11.16C75.6125 10.1467 76.4392 9.12 77.2125 8.08C77.9858 7.01333 78.6125 5.98667 79.0925 5C79.5992 4.01333 79.8525 3.13333 79.8525 2.36C79.8525 1.85333 79.6258 1.6 79.1725 1.6C78.5592 1.6 77.9325 1.88 77.2925 2.44C76.6525 3 76.0258 3.74667 75.4125 4.68C74.8258 5.61333 74.2525 6.62667 73.6925 7.72C73.1592 8.81333 72.6658 9.90667 72.2125 11C71.7858 12.0667 71.4125 13.04 71.0925 13.92C70.7992 14.7733 70.5725 15.44 70.4125 15.92ZM63.2525 23.2C63.8658 22.8533 64.4792 22.3067 65.0925 21.56C65.7325 20.8133 66.3325 19.96 66.8925 19C67.4792 18.04 67.9725 17.08 68.3725 16.12C67.7325 16.12 67.0125 16.36 66.2125 16.84C65.4125 17.2933 64.6525 17.88 63.9325 18.6C63.2125 19.2933 62.6125 20.0267 62.1325 20.8C61.6792 21.5467 61.4525 22.2267 61.4525 22.84C61.4525 23.3467 61.6525 23.6 62.0525 23.6C62.3458 23.6 62.7458 23.4667 63.2525 23.2ZM84.4534 25.12C83.6001 25.12 82.9601 24.92 82.5334 24.52C82.1068 24.0933 81.8268 23.56 81.6934 22.92C81.5868 22.28 81.5468 21.64 81.5734 21C81.1734 21.5333 80.6801 22.12 80.0934 22.76C79.5068 23.3733 78.8668 23.9067 78.1734 24.36C77.4801 24.8133 76.7734 25.04 76.0534 25.04C75.5201 25.04 75.0801 24.92 74.7334 24.68C74.3868 24.4133 74.2134 24 74.2134 23.44C74.2134 22.5067 74.5068 21.52 75.0934 20.48C75.7068 19.44 76.4801 18.4533 77.4134 17.52C78.3468 16.56 79.3468 15.7867 80.4134 15.2C81.4801 14.6133 82.4801 14.32 83.4134 14.32C83.6801 14.32 84.0534 14.3733 84.5334 14.48C85.0134 14.5867 85.4401 14.7467 85.8134 14.96C86.2134 15.1733 86.4134 15.4667 86.4134 15.84C86.4134 16.0267 86.2934 16.1333 86.0534 16.16C85.8134 16.1867 85.6401 16.2667 85.5334 16.4C84.7601 17.3333 84.3734 18.84 84.3734 20.92C84.3734 21.1867 84.3868 21.5467 84.4134 22C84.4401 22.4533 84.5334 22.8533 84.6934 23.2C84.8801 23.5467 85.1601 23.72 85.5334 23.72C86.0934 23.72 86.6934 23.48 87.3334 23C87.9734 22.52 88.6134 21.9467 89.2534 21.28C89.8934 20.5867 90.4801 19.96 91.0134 19.4C91.0668 19.32 91.1201 19.28 91.1734 19.28C91.3068 19.28 91.4134 19.36 91.4934 19.52C91.6001 19.6533 91.6001 19.7733 91.4934 19.88C90.8534 20.6267 90.2268 21.2933 89.6134 21.88C89.0268 22.4667 88.4134 23.0267 87.7734 23.56C86.5468 24.6 85.4401 25.12 84.4534 25.12ZM78.2134 23.2C78.8268 22.8533 79.4401 22.3067 80.0534 21.56C80.6934 20.8133 81.2934 19.96 81.8534 19C82.4401 18.04 82.9334 17.08 83.3334 16.12C82.6934 16.12 81.9734 16.36 81.1734 16.84C80.3734 17.2933 79.6134 17.88 78.8934 18.6C78.1734 19.2933 77.5734 20.0267 77.0934 20.8C76.6401 21.5467 76.4134 22.2267 76.4134 22.84C76.4134 23.3467 76.6134 23.6 77.0134 23.6C77.3068 23.6 77.7068 23.4667 78.2134 23.2Z" fill="white"/>
</svg>
